<?xml version="1.0" encoding="UTF-8"?>
<svg width="847px" height="319px" viewBox="0 0 847 319" version="1.1" xmlns="http://www.w3.org/2000/svg" xmlns:xlink="http://www.w3.org/1999/xlink">
    <!-- Generator: Sketch 63.1 (92452) - https://sketch.com -->
    <title>Slice</title>
    <desc>Created with Sketch.</desc>
    <defs>
        <path d="M46,0 C71.4050985,0 92,20.4722907 92,45.7261411 C89.185484,45.7261411 86.5076122,47.1733965 83.9663845,50.0679074 C81.2576405,47.1733965 76.8628712,45.7261411 70.7820764,45.7261411 C69.0792299,45.7261411 67.4631617,45.8616718 65.9338718,46.1327332 C62.2962983,46.8568862 59.2302783,48.3256268 56.7360248,50.5393608 C56.2235142,49.8594982 55.6657595,49.2499014 55.0627607,48.7105703 C52.1324271,46.7209018 49.1460669,45.7261411 46.1038262,45.7261411 C45.114878,45.7261411 44.1554641,45.8312594 43.2255846,46.0414961 C40.9501965,46.7295396 38.6864772,48.2285773 36.4342112,50.5393608 C35.8794782,49.9908196 35.2692086,49.4880209 34.6034024,49.0309647 C33.2066763,48.2284937 31.8769443,47.5704186 30.6131202,47.0569473 C28.6080614,46.3628575 26.2990883,45.9175269 23.6874735,45.7214663 L23.6235723,45.7261411 C25.6720737,45.5524579 28.0019231,45.99606 30.6131202,47.0569473 C32.1128863,47.5762425 33.4425561,48.2340781 34.6034024,49.0309647 C35.1626537,49.3534415 35.7336152,49.6990197 36.3152008,50.0679074 C38.4016778,47.9534814 40.7051391,46.6113443 43.2255846,46.0414961 C44.1885442,45.7512887 45.1537721,45.6058091 46.1210526,45.6058091 C49.768007,45.6058091 52.7485763,46.6407295 55.0627607,48.7105703 C55.6671224,49.1206291 56.2689626,49.5731239 56.8684272,50.0679074 C59.4439534,48.0591675 62.4657682,46.7474428 65.9338718,46.1327332 C67.7011053,45.7815858 69.6030306,45.6058091 71.6398607,45.6058091 C71.6398607,31.5832764 60.2275678,20.2157676 46.1210526,20.2157676 C32.0145374,20.2157676 20.4658441,31.5832764 20.4658441,45.6058091 C21.5865275,45.6058091 22.660404,45.6443615 23.6874735,45.7214663 L23.6235723,45.7261411 C18.0164149,46.2015465 14.3337106,47.6488019 12.5754595,50.0679074 C10.433471,47.1733965 6.24165122,45.7261411 0,45.7261411 C0,20.4722907 20.5949015,0 46,0 Z" id="path-1"></path>
    </defs>
    <g id="Branding" stroke="none" stroke-width="1" fill="none" fill-rule="evenodd">
        <g id="Group-42" transform="translate(-41.000000, -17.000000)">
            <g id="logo-copy" transform="translate(323.000000, 62.000000)">
                <path d="M132.98907,53.7798356 C134.190057,54.8446039 135.136975,56.2102644 135.829852,57.8768582 C136.522729,59.5434519 136.869162,61.6266629 136.869162,64.1265536 L136.869162,81.4173774 C136.869162,82.1580858 136.499633,82.5284344 135.760564,82.5284344 L131.672611,82.5284344 C130.933542,82.5284344 130.564013,82.1580858 130.564013,81.4173774 L130.564013,64.1265536 C130.564013,61.7192514 129.963529,59.9716689 128.762542,58.8837535 C127.561555,57.7958382 126.129631,57.2055951 124.466726,57.1130065 C124.189576,57.0667122 123.912429,57.0551389 123.635278,57.078286 C123.358128,57.1014331 123.080981,57.1361533 122.80383,57.1824476 C121.833802,57.2750361 120.90998,57.506504 120.032336,57.8768582 C119.154692,58.2472123 118.369443,58.7911619 117.676566,59.5087231 C116.983689,60.2262843 116.429396,61.1405824 116.01367,62.2516449 C115.597944,63.3627075 115.390084,64.7052212 115.390084,66.2792264 L115.390084,81.4173774 C115.390084,82.1580858 115.020555,82.5284344 114.281486,82.5284344 L110.124245,82.5284344 C109.847095,82.5284344 109.604591,82.4242739 109.396728,82.2159496 C109.188865,82.0076254 109.084935,81.7414373 109.084935,81.4173774 L109.084935,52.7382198 C109.084935,52.4604541 109.188865,52.2058394 109.396728,51.9743681 C109.604591,51.7428967 109.847095,51.6271628 110.124245,51.6271628 L114.281486,51.6271628 C114.604829,51.6271628 114.870428,51.7428967 115.078291,51.9743681 C115.286154,52.2058394 115.390084,52.4604541 115.390084,52.7382198 L115.390084,54.5436873 C116.082961,53.7566847 116.879757,53.0854278 117.780497,52.5298966 C118.681237,51.9743653 119.593512,51.5577231 120.517348,51.2799575 C121.025457,51.1410747 121.579751,51.0253407 122.180244,50.9327522 C122.780737,50.8401637 123.473604,50.7938701 124.258864,50.7938701 L125.783186,50.7938701 C126.845597,50.8864586 127.804063,51.0832063 128.658611,51.3841191 C129.513159,51.6850318 130.263765,52.0206603 130.91045,52.3910145 C131.649519,52.8076629 132.342385,53.2705987 132.98907,53.7798356 Z M175.761168,81.4173774 C175.761168,82.1580858 175.391639,82.5284344 174.65257,82.5284344 L170.426042,82.5284344 C170.1027,82.5284344 169.825553,82.4242739 169.594594,82.2159496 C169.363635,82.0076254 169.248157,81.7414373 169.248157,81.4173774 L169.248157,79.8202331 C167.862403,80.9775899 166.280358,81.891888 164.501974,82.5631549 C162.72359,83.2344219 160.841302,83.5700503 158.855055,83.5700503 C156.591657,83.5700503 154.466866,83.1418347 152.480619,82.2853907 C150.494372,81.4289467 148.762205,80.2484605 147.284068,78.7438966 C145.80593,77.2393328 144.639605,75.4917503 143.785057,73.5010966 C142.930508,71.510443 142.503241,69.3809384 142.503241,67.1125191 C142.503241,64.8440998 142.930508,62.7145953 143.785057,60.7239416 C144.639605,58.733288 145.80593,56.9857054 147.284068,55.4811416 C148.762205,53.9765778 150.494372,52.7960916 152.480619,51.9396476 C154.466866,51.0832035 156.591657,50.654988 158.855055,50.654988 C160.841302,50.654988 162.72359,50.979043 164.501974,51.6271628 C166.280358,52.2752826 167.862403,53.2011541 169.248157,54.4048052 L169.248157,52.5993376 C169.248157,52.2752777 169.363635,52.0090897 169.594594,51.8007654 C169.825553,51.5924412 170.1027,51.4882807 170.426042,51.4882807 L174.65257,51.4882807 C175.391639,51.4882807 175.761168,51.8586293 175.761168,52.5993376 L175.761168,81.4173774 Z M158.855055,77.459237 C160.287001,77.459237 161.649638,77.2046224 162.943009,76.6953854 C164.236379,76.1861484 165.379609,75.468598 166.372732,74.5427125 C167.365856,73.6168271 168.151105,72.528928 168.728502,71.2789827 C169.3059,70.0290374 169.594594,68.6402301 169.594594,67.1125191 C169.594594,65.5848082 169.3059,64.1844275 168.728502,62.911335 C168.151105,61.6382425 167.365856,60.5387701 166.372732,59.6128847 C165.379609,58.6869992 164.236379,57.9694488 162.943009,57.4602118 C161.649638,56.9509748 160.287001,56.6963602 158.855055,56.6963602 C157.423109,56.6963602 156.083567,56.9741216 154.836389,57.5296529 C153.58921,58.0851841 152.492172,58.8258814 151.54524,59.7517668 C150.598308,60.6776522 149.85925,61.7771247 149.328045,63.0502171 C148.796839,64.3233096 148.53124,65.6773967 148.53124,67.1125191 C148.53124,68.5476415 148.796839,69.8901553 149.328045,71.1401006 C149.85925,72.3900459 150.598308,73.4895184 151.54524,74.4385509 C152.492172,75.3875835 153.58921,76.1282807 154.836389,76.6606648 C156.083567,77.193049 157.423109,77.459237 158.855055,77.459237 Z M228.787793,53.7798356 C229.98878,54.8446039 230.935697,56.2102644 231.628574,57.8768582 C232.321451,59.5434519 232.667885,61.6266629 232.667885,64.1265536 L232.667885,81.4173774 C232.667885,82.1580858 232.298356,82.5284344 231.559287,82.5284344 L227.471333,82.5284344 C226.732265,82.5284344 226.362736,82.1580858 226.362736,81.4173774 L226.362736,64.1265536 C226.362736,61.7192514 225.762252,59.9716689 224.561265,58.8837535 C223.360278,57.7958382 221.928354,57.2055951 220.265449,57.1130065 C219.988298,57.0667122 219.711152,57.0551389 219.434001,57.078286 C219.15685,57.1014331 218.879704,57.1361533 218.602553,57.1824476 C217.632525,57.2750361 216.708703,57.506504 215.831059,57.8768582 C214.953415,58.2472123 214.168166,58.7911619 213.475289,59.5087231 C212.782412,60.2262843 212.228119,61.1405824 211.812393,62.2516449 C211.396667,63.3627075 211.188807,64.7052212 211.188807,66.2792264 L211.188807,81.4173774 C211.188807,82.1580858 210.819278,82.5284344 210.080209,82.5284344 L205.922968,82.5284344 C205.645817,82.5284344 205.414862,82.4358472 205.230095,82.2506702 C204.999136,82.0191988 204.883658,81.7414373 204.883658,81.4173774 L204.883658,64.1265536 C204.883658,61.7192514 204.283174,59.9716689 203.082187,58.8837535 C201.8812,57.7958382 200.449276,57.2055951 198.786371,57.1130065 C198.509221,57.0667122 198.232074,57.0551389 197.954923,57.078286 C197.677772,57.1014331 197.400626,57.1361533 197.123475,57.1824476 C196.153447,57.2750361 195.229625,57.506504 194.351981,57.8768582 C193.474337,58.2472123 192.689088,58.7911619 191.996211,59.5087231 C191.303334,60.2262843 190.749041,61.1405824 190.333315,62.2516449 C189.917589,63.3627075 189.709729,64.7052212 189.709729,66.2792264 L189.709729,81.4173774 C189.709729,82.1580858 189.3402,82.5284344 188.601131,82.5284344 L184.44389,82.5284344 C184.166739,82.5284344 183.924236,82.4242739 183.716373,82.2159496 C183.50851,82.0076254 183.40458,81.7414373 183.40458,81.4173774 L183.40458,52.7382198 C183.40458,52.4604541 183.50851,52.2058394 183.716373,51.9743681 C183.924236,51.7428967 184.166739,51.6271628 184.44389,51.6271628 L188.601131,51.6271628 C188.924474,51.6271628 189.190073,51.7428967 189.397936,51.9743681 C189.605799,52.2058394 189.709729,52.4604541 189.709729,52.7382198 L189.709729,54.5436873 C190.402606,53.7566847 191.199402,53.0854278 192.100142,52.5298966 C193.000882,51.9743653 193.913157,51.5577231 194.836992,51.2799575 C195.345102,51.1410747 195.899395,51.0253407 196.499889,50.9327522 C197.100382,50.8401637 197.793249,50.7938701 198.578509,50.7938701 L200.102831,50.7938701 C201.165242,50.8864586 202.123708,51.0832063 202.978256,51.3841191 C203.832804,51.6850318 204.58341,52.0206603 205.230095,52.3910145 C205.969163,52.8076629 206.66203,53.2705987 207.308715,53.7798356 C208.278743,54.6594268 209.063992,55.6778855 209.664485,56.8352423 C209.756869,56.5574767 209.895442,56.2797152 210.080209,56.0019496 C210.264976,55.7241839 210.449741,55.4695693 210.634508,55.2380979 L211.188807,54.5436873 C211.881684,53.7566847 212.67848,53.0854278 213.57922,52.5298966 C214.47996,51.9743653 215.392234,51.5577231 216.31607,51.2799575 C216.82418,51.1410747 217.378473,51.0253407 217.978967,50.9327522 C218.57946,50.8401637 219.272327,50.7938701 220.057587,50.7938701 L221.581909,50.7938701 C222.64432,50.8864586 223.602786,51.0832063 224.457334,51.3841191 C225.311882,51.6850318 226.062487,52.0206603 226.709173,52.3910145 C227.448241,52.8076629 228.141108,53.2705987 228.787793,53.7798356 Z M245.230698,58.8613671 C245.554041,58.8613671 245.831188,58.941143 246.062147,59.100697 C246.293106,59.2602511 246.408583,59.4641226 246.408583,59.7123179 L246.408583,81.6774837 C246.408583,81.9256789 246.293106,82.1295504 246.062147,82.2891045 C245.831188,82.4486586 245.554041,82.5284344 245.230698,82.5284344 L241.00417,82.5284344 C240.265101,82.5284344 239.895573,82.244787 239.895573,81.6774837 L239.895573,59.7123179 C239.895573,59.1450145 240.265101,58.8613671 241.00417,58.8613671 L245.230698,58.8613671 Z M280.450475,76.8342675 C280.635242,77.0194446 280.727624,77.297206 280.727624,77.6675602 C280.727624,77.9453258 280.635242,78.1767937 280.450475,78.3619708 C280.450475,78.4082651 280.438927,78.4314119 280.415831,78.4314119 C280.392735,78.4314119 280.381188,78.4545587 280.381188,78.5008529 C278.90305,80.0748582 277.182432,81.3132113 275.21928,82.2159496 C273.256129,83.1186879 271.096695,83.5700503 268.740913,83.5700503 C266.477515,83.5700503 264.352724,83.1418347 262.366477,82.2853907 C260.38023,81.4289467 258.636516,80.2484605 257.135282,78.7438966 C255.634049,77.2393328 254.456176,75.4917503 253.601628,73.5010966 C252.747079,71.510443 252.319812,69.3809384 252.319812,67.1125191 C252.319812,64.8440998 252.747079,62.7145953 253.601628,60.7239416 C254.456176,58.733288 255.634049,56.9857054 257.135282,55.4811416 C258.636516,53.9765778 260.38023,52.7960916 262.366477,51.9396476 C264.352724,51.0832035 266.477515,50.654988 268.740913,50.654988 C271.096695,50.654988 273.279224,51.1179237 275.288568,52.0438092 C277.297911,52.9696946 279.041625,54.2427679 280.519762,55.8630674 C280.612146,55.955656 280.658337,56.0250963 280.658337,56.0713906 C280.843104,56.2565677 280.935486,56.4880356 280.935486,56.7658012 C280.935486,57.0435668 280.820009,57.2981815 280.58905,57.5296529 L280.381188,57.7379761 L277.817556,59.8906489 C277.771364,59.8906489 277.702077,59.9369425 277.609694,60.029531 C277.471118,60.1684138 277.263258,60.2378542 276.986108,60.2378542 C276.755149,60.2378542 276.501098,60.1452671 276.223947,59.96009 C276.131563,59.8675014 276.085372,59.7980611 276.085372,59.7517668 C275.161536,58.8258814 274.064497,58.0851841 272.794223,57.5296529 C271.523949,56.9741216 270.172859,56.6963602 268.740913,56.6963602 C267.308967,56.6963602 265.969425,56.9741216 264.722247,57.5296529 C263.475068,58.0851841 262.37803,58.8258814 261.431098,59.7517668 C260.484166,60.6776522 259.745108,61.7771247 259.213903,63.0502171 C258.682697,64.3233096 258.417098,65.6773967 258.417098,67.1125191 C258.417098,68.5476415 258.682697,69.8901553 259.213903,71.1401006 C259.745108,72.3900459 260.484166,73.4895184 261.431098,74.4385509 C262.37803,75.3875835 263.475068,76.1282807 264.722247,76.6606648 C265.969425,77.193049 267.308967,77.459237 268.740913,77.459237 C270.172859,77.459237 271.500853,77.2046224 272.724936,76.6953854 C273.949018,76.1861484 275.022961,75.468598 275.946797,74.5427125 L276.085372,74.4038304 C276.270139,74.2186533 276.52419,74.1260662 276.847533,74.1260662 C277.124684,74.1260662 277.332544,74.1955065 277.471119,74.3343893 C277.517311,74.3806836 277.551954,74.4038304 277.57505,74.4038304 C277.598146,74.4038304 277.632789,74.4269772 277.678981,74.4732715 L280.242613,76.6259443 L280.450475,76.8342675 Z M16.7675383,50.7938701 C19.0309363,50.7938701 21.1557271,51.2220857 23.1419743,52.0785297 C25.1282216,52.9349737 26.8603879,54.1038865 28.3385254,55.5853032 C29.8166629,57.0667199 30.9829883,58.802729 31.8375365,60.7933827 C32.6920847,62.7840364 33.1193525,64.9135409 33.1193525,67.1819602 C33.1193525,69.4503795 32.6920847,71.5683106 31.8375365,73.5358172 C30.9829883,75.5033237 29.8166629,77.2277594 28.3385254,78.7091761 C26.8603879,80.1905928 25.1282216,81.3595056 23.1419743,82.2159496 C21.1557271,83.0723937 19.0309363,83.5006092 16.7675383,83.5006092 C14.8274828,83.5006092 12.9798387,83.1765542 11.2245504,82.5284344 C9.46926215,81.8803146 7.87566908,80.9775899 6.44372339,79.8202331 L6.44372339,94.888943 C6.44372339,95.6296514 6.07419456,96 5.33512581,96 L1.10859757,96 C0.831446793,96 0.577395723,95.8958395 0.346436741,95.6875152 C0.115477759,95.479191 0,95.2130029 0,94.888943 L0,52.6687787 C0,52.3447188 0.115477759,52.0785307 0.346436741,51.8702065 C0.577395723,51.6618823 0.831446793,51.5577217 1.10859757,51.5577217 L5.33512581,51.5577217 C6.07419456,51.5577217 6.44372339,51.9280703 6.44372339,52.6687787 L6.44372339,54.5436873 C7.87566908,53.3400363 9.46926215,52.4141647 11.2245504,51.7660449 C12.9798387,51.1179251 14.8274828,50.7938701 16.7675383,50.7938701 Z M80.2783567,51.0716343 C80.7402747,51.0716343 81.086708,51.3031022 81.317667,51.7660449 L89.4242867,71.9039523 L97.5309064,51.7660449 C97.6694818,51.3031022 97.9928196,51.0716343 98.5009293,51.0716343 L102.866032,51.0716343 C103.235567,51.0716343 103.535809,51.2336618 103.766768,51.5577217 C103.997727,51.8354874 104.020822,52.1595424 103.836055,52.5298966 L94.1358264,76.6259443 L91.4336198,83.6394914 C91.3412362,83.8246684 91.1218285,84.2991776 90.77539,85.0630331 C90.4289515,85.8268886 89.8977538,86.7643335 89.181781,87.875396 C88.4658081,88.9864585 87.5419861,90.1900915 86.4102871,91.4863311 C85.278588,92.7825707 83.8813072,94.0324973 82.2184025,95.2361483 C81.9874435,95.3750312 81.756488,95.4444715 81.525529,95.4444715 C81.2021864,95.4444715 80.9250398,95.3287376 80.6940808,95.0972662 L80.5555061,94.819502 L77.9918742,91.9029775 C77.8994907,91.8103889 77.8532995,91.7178018 77.8532995,91.6252132 C77.760916,91.4400361 77.7147249,91.2780086 77.7147249,91.1391258 C77.7147249,90.8150659 77.8302026,90.5373045 78.0611616,90.3058331 C78.1073534,90.3058331 78.17664,90.2595395 78.2690236,90.166951 C79.5162021,89.2410656 80.5670497,88.2689004 81.421598,87.2504265 C82.2761462,86.2319525 82.9805605,85.2945076 83.5348621,84.4380635 C84.0891637,83.5816195 84.5048836,82.8640691 84.7820344,82.2853907 C85.0591852,81.7067123 85.1977585,81.3942307 85.1977585,81.3479364 L85.1977585,81.2784953 L85.8906319,79.6119099 L74.9432309,52.5298966 C74.8046555,52.2058367 74.8508466,51.8817816 75.0818056,51.5577217 C75.3127646,51.2336618 75.5899112,51.0716343 75.9132538,51.0716343 L80.2783567,51.0716343 Z M53.3037745,50.654988 C55.2900218,50.654988 57.1723093,50.979043 58.9506934,51.6271628 C60.7290776,52.2752826 62.3111229,53.2011541 63.6968768,54.4048052 L63.6968768,52.5993376 C63.6968768,52.2752777 63.8123545,52.0090897 64.0433135,51.8007654 C64.2742725,51.5924412 64.5514191,51.4882807 64.8747617,51.4882807 L69.1012899,51.4882807 C69.8403587,51.4882807 70.2098875,51.8586293 70.2098875,52.5993376 L70.2098875,81.4173774 C70.2098875,82.1580858 69.8403587,82.5284344 69.1012899,82.5284344 L64.8747617,82.5284344 C64.5514191,82.5284344 64.2742725,82.4242739 64.0433135,82.2159496 C63.8123545,82.0076254 63.6968768,81.7414373 63.6968768,81.4173774 L63.6968768,79.8202331 C62.3111229,80.9775899 60.7290776,81.891888 58.9506934,82.5631549 C57.1723093,83.2344219 55.2900218,83.5700503 53.3037745,83.5700503 C51.0403765,83.5700503 48.9155857,83.1418347 46.9293385,82.2853907 C44.9430912,81.4289467 43.2109249,80.2484605 41.7327874,78.7438966 C40.2546499,77.2393328 39.0883245,75.4917503 38.2337763,73.5010966 C37.3792281,71.510443 36.9519603,69.3809384 36.9519603,67.1125191 C36.9519603,64.8440998 37.3792281,62.7145953 38.2337763,60.7239416 C39.0883245,58.733288 40.2546499,56.9857054 41.7327874,55.4811416 C43.2109249,53.9765778 44.9430912,52.7960916 46.9293385,51.9396476 C48.9155857,51.0832035 51.0403765,50.654988 53.3037745,50.654988 Z M295.265128,50.5855469 C296.350635,50.770724 297.274457,51.0137653 298.036622,51.314678 C298.798786,51.6155908 299.410818,51.9280724 299.872736,52.2521323 C300.334654,52.5761922 300.704183,52.8771005 300.981334,53.1548661 C301.073717,53.2011604 301.1661,53.2706007 301.258483,53.3631893 C301.674209,53.6872492 302.020643,54.0228776 302.297793,54.3700847 C302.574944,54.7172917 302.828995,55.0529201 303.059954,55.37698 C303.152338,55.4695686 303.198529,55.5621557 303.198529,55.6547443 C303.244721,55.7473328 303.267816,55.9093603 303.267816,56.1408317 C303.267816,56.6037744 303.059956,56.9509762 302.64423,57.1824476 C302.598038,57.1824476 302.563395,57.194021 302.540299,57.2171681 C302.517203,57.2403152 302.48256,57.2518886 302.436368,57.2518886 L298.833426,58.5712688 C298.741042,58.617563 298.625565,58.6407098 298.486989,58.6407098 C298.440797,58.6870041 298.371511,58.7101509 298.279127,58.7101509 C298.048168,58.7101509 297.840308,58.6407105 297.655541,58.5018277 C297.563157,58.4555334 297.436132,58.3513729 297.274461,58.1893429 L296.962668,57.8768582 C296.731709,57.6916811 296.535396,57.5296536 296.373725,57.3907708 C296.212054,57.2518879 295.969551,57.136154 295.646208,57.0435655 C295.18429,56.8583884 294.618449,56.7195076 293.948668,56.6269191 C293.278887,56.5343306 292.551377,56.5343306 291.766116,56.6269191 C291.581349,56.6732134 291.31575,56.7426537 290.969312,56.8352423 C290.622874,56.9278308 290.264892,57.0898583 289.895358,57.3213297 C289.341057,57.6916839 288.994623,58.0388857 288.856048,58.3629456 C288.717472,58.6870055 288.648186,59.0110605 288.648186,59.3351204 C288.648186,59.7054746 288.775211,60.0873966 289.029266,60.4808979 C289.283321,60.8743992 289.802971,61.2331744 290.588232,61.5572343 L291.003956,61.6961165 C291.142531,61.7424107 291.258009,61.7887043 291.350392,61.8349986 L297.794116,64.1265536 L298.001978,64.2654357 C298.04817,64.2654357 298.129004,64.2885825 298.244484,64.3348767 C298.359963,64.381171 298.463893,64.4274646 298.556277,64.4737589 C299.064386,64.7052302 299.676418,64.9945651 300.392391,65.3417721 C301.108364,65.6889791 301.789683,66.1866351 302.436368,66.8347549 C304.145465,68.4550544 305,70.5845589 305,73.2233324 C305,74.9825147 304.572732,76.5449229 303.718184,77.9106039 C302.863636,79.2762849 301.628024,80.422051 300.011311,81.3479364 C298.9489,81.9497619 297.978886,82.3548307 297.101242,82.5631549 C296.223598,82.7714792 295.738592,82.8756397 295.646208,82.8756397 L295.438346,82.9450808 L294.052599,82.9450808 C291.604434,82.9450808 289.618216,82.6441725 288.093887,82.042347 C287.170051,81.7182871 286.430993,81.3595119 285.876692,80.9660106 C285.32239,80.5725092 284.860479,80.2368808 284.490945,79.9591152 C284.444753,79.8665266 284.398562,79.8086597 284.35237,79.7855125 C284.306178,79.7623654 284.259987,79.7276452 284.213796,79.6813509 C283.751878,79.3109968 283.359253,78.9175014 283.035911,78.5008529 C282.712568,78.0842045 282.435421,77.6907091 282.204462,77.3203549 C282.112079,77.2277664 282.065888,77.1351792 282.065888,77.0425907 C281.973504,76.8574136 281.927313,76.7185329 281.927313,76.6259443 C281.927313,76.1630016 282.135173,75.8157998 282.550899,75.5843284 L282.897336,75.4454463 L286.361703,74.1955072 C286.407895,74.1955072 286.454086,74.1839338 286.500278,74.1607867 C286.54647,74.1376396 286.615756,74.1260662 286.70814,74.1260662 C286.754332,74.0797719 286.823619,74.0566251 286.916002,74.0566251 C287.239345,74.0566251 287.516491,74.172359 287.74745,74.4038304 C287.793642,74.4501247 287.920668,74.5658586 288.128531,74.7510357 C288.336394,74.9362128 288.486515,75.0750935 288.578898,75.1676821 C288.809857,75.3991534 289.040813,75.5959011 289.271772,75.7579311 C289.502731,75.919961 289.802973,76.0704151 290.172507,76.209298 C291.234919,76.6259464 292.782321,76.7879739 294.81476,76.6953854 C294.999527,76.6490911 295.311317,76.5680773 295.750139,76.4523417 C296.188961,76.336606 296.639324,76.1398583 297.101242,75.8620927 C297.840311,75.3991499 298.302222,74.9362142 298.486989,74.4732715 C298.671756,74.0103288 298.764139,73.5936866 298.764139,73.2233324 C298.764139,72.297447 298.567826,71.6724837 298.175196,71.3484238 C297.782566,71.0243639 297.147438,70.677162 296.269794,70.3068079 C296.177411,70.2450822 296.079896,70.1936446 295.977248,70.1524944 L295.819426,70.0984847 C295.657755,70.0521904 295.507634,69.9827501 295.369059,69.8901615 L288.925335,67.5986065 L288.786761,67.5291655 C288.740569,67.5291655 288.671282,67.5060187 288.578898,67.4597244 L288.301749,67.3208423 C287.793639,67.1356652 287.227798,66.8926239 286.604209,66.5917112 C285.98062,66.2907984 285.368588,65.839436 284.768094,65.2376105 C283.197573,63.7098996 282.412324,61.7424225 282.412324,59.3351204 C282.412324,56.0482272 283.913535,53.548374 286.916002,51.835486 C287.88603,51.326249 288.775209,50.9674738 289.583565,50.7591495 C290.391921,50.5508253 290.842285,50.4466648 290.934668,50.4466648 L291.14253,50.4466648 L291.281105,50.3772237 C292.851626,50.3309294 294.17962,50.4003698 295.265128,50.5855469 Z M16.7675383,56.8352423 C15.3355926,56.8352423 13.9845028,57.089857 12.7142284,57.5990939 C11.443954,58.1083309 10.3238197,58.8258814 9.35379201,59.7517668 C8.38376429,60.6776522 7.6100633,61.7655513 7.03266585,63.0154966 C6.45526839,64.2654419 6.16657399,65.6542492 6.16657399,67.1819602 C6.16657399,68.7096711 6.45526839,70.0984784 7.03266585,71.3484238 C7.6100633,72.5983691 8.38376429,73.6746948 9.35379201,74.5774331 C10.3238197,75.4801713 11.443954,76.1861484 12.7142284,76.6953854 C13.9845028,77.2046224 15.3355926,77.459237 16.7675383,77.459237 C18.199484,77.459237 19.539026,77.193049 20.7862045,76.6606648 C22.033383,76.1282807 23.1188739,75.3991569 24.0427098,74.4732715 C24.9665458,73.547386 25.7056034,72.459487 26.259905,71.2095417 C26.8142065,69.9595963 27.0913532,68.6170826 27.0913532,67.1819602 C27.0913532,65.7468378 26.8142065,64.404324 26.259905,63.1543787 C25.7056034,61.9044334 24.9665458,60.8165343 24.0427098,59.8906489 C23.1188739,58.9647635 22.033383,58.2240663 20.7862045,57.668535 C19.539026,57.1130037 18.199484,56.8352423 16.7675383,56.8352423 Z M53.3037745,56.6963602 C51.8718288,56.6963602 50.5322868,56.9741216 49.2851083,57.5296529 C48.0379298,58.0851841 46.9408911,58.8258814 45.9939593,59.7517668 C45.0470275,60.6776522 44.3079698,61.7771247 43.7767642,63.0502171 C43.2455585,64.3233096 42.9799596,65.6773967 42.9799596,67.1125191 C42.9799596,68.5476415 43.2455585,69.8901553 43.7767642,71.1401006 C44.3079698,72.3900459 45.0470275,73.4895184 45.9939593,74.4385509 C46.9408911,75.3875835 48.0379298,76.1282807 49.2851083,76.6606648 C50.5322868,77.193049 51.8718288,77.459237 53.3037745,77.459237 C54.7357202,77.459237 56.0983578,77.2046224 57.3917281,76.6953854 C58.6850984,76.1861484 59.8283282,75.468598 60.8214518,74.5427125 C61.8145754,73.6168271 62.5998242,72.528928 63.1772217,71.2789827 C63.7546191,70.0290374 64.0433135,68.6402301 64.0433135,67.1125191 C64.0433135,65.5848082 63.7546191,64.1844275 63.1772217,62.911335 C62.5998242,61.6382425 61.8145754,60.5387701 60.8214518,59.6128847 C59.8283282,58.6869992 58.6850984,57.9694488 57.3917281,57.4602118 C56.0983578,56.9509748 54.7357202,56.6963602 53.3037745,56.6963602 Z M243.269227,36.6908262 C248.2214,36.6908262 252.235929,40.7142617 252.235929,45.6774208 C252.235929,50.64058 248.2214,54.6640154 243.269227,54.6640154 C238.317054,54.6640154 234.302525,50.64058 234.302525,45.6774208 C234.302525,40.7142617 238.317054,36.6908262 243.269227,36.6908262 Z M243.391289,26 C254.162062,26 262.977892,35.4792091 262.977892,46.2738758 C260.929105,46.6690877 259.222353,47.4332496 257.741718,48.4272441 C257.817076,47.7755841 257.820284,47.0902876 257.743838,46.3728211 C257.743838,38.4251399 251.176407,31.0987825 243.246319,31.0987825 C235.31623,31.0987825 228.787103,38.4251399 228.787103,46.3728211 C228.787103,46.7939934 228.808664,47.2029385 228.85061,47.5997385 C227.508355,46.9270884 225.948811,46.4558295 224.112819,46.2738758 C224.112819,35.4792091 232.620517,26 243.391289,26 Z" id="namics" fill="#4A4A4A"></path>
                <g id="gear" transform="translate(197.000000, 0.000000)">
                    <mask id="mask-2" fill="white">
                        <use xlink:href="#path-1"></use>
                    </mask>
                    <use id="Mask" fill-opacity="0" fill="#FFFFFF" xlink:href="#path-1"></use>
                    <path d="M92.2421053,46.7742214 C92.2421053,44.2848436 92.1095548,41.6643933 91.7122399,39.1750155 L84.1598926,37.6028119 L81.3773426,29.4796491 L86.5447913,23.7147917 C85.3521737,21.4875587 83.8947917,19.3910655 82.3048593,17.4256447 L74.8850624,19.9150225 L68.3927822,14.2812375 L69.9827146,6.68203162 C67.7303664,5.37197285 65.4776817,4.19265382 63.0927831,3.27547961 L58.0578848,9.04033702 L49.5780208,7.33706101 L47.0605717,0 C44.5431226,0 41.8931231,0.131072412 39.375674,0.523956975 L37.7857415,7.9920904 L29.5709784,10.743613 L23.741114,5.633785 C21.4887657,6.81310404 19.3686315,8.25423522 17.3810478,9.82643882 L19.8984969,17.1634998 L14.2011829,23.5833866 L6.51628511,22.011183 C5.19145355,24.238416 3.998836,26.4659817 3.07131934,28.8242871 L8.90118378,33.9341151 L7.17870089,42.3194227 L-0.242105263,44.6780608 C-0.242105263,47.1674386 -0.109554822,49.7878888 0.287760078,52.2772666 L7.97265785,53.8494702 L10.7552078,61.972633 L5.58775918,67.7374904 C6.78037672,69.9647234 8.23775873,72.0612167 9.82769117,74.0266375 L17.2474881,71.5372597 L23.7397683,77.1710447 L22.0172854,84.7702505 C24.2696336,86.0803093 26.5223183,87.2596283 28.9072169,88.1768026 L34.0746656,82.4119451 L42.5545296,84.1152211 L45.0719787,91.4522822 C47.5894278,91.4522822 50.2394274,91.3212097 52.7568765,90.9283252 L54.3468089,83.4601918 L62.561572,80.7086691 L68.3914365,85.8184972 C70.6437847,84.6391781 72.7639189,83.1980469 74.7515027,81.6258433 L72.2340536,74.2887823 L77.9313676,67.8688955 L85.6162653,69.4410991 C86.9410969,67.2138661 88.1337144,64.9863005 89.0612311,62.6279951 L83.2313667,57.5181671 L84.9538495,49.1328594 L92.2421053,46.7742214 L92.2421053,46.7742214 Z M46,70.9958506 C31.8453943,70.9958506 20.3368421,59.6094442 20.3368421,45.6058091 C20.3368421,31.6021741 31.8457302,20.2157676 46,20.2157676 C60.1542698,20.2157676 71.6631579,31.6021741 71.6631579,45.6058091 C71.6631579,59.6094442 60.1546057,70.9958506 46,70.9958506 Z" fill="#4A4A4A" fill-rule="nonzero" mask="url(#mask-2)"></path>
                    <g id="icon" transform="translate(31.496809, 31.193982)"></g>
                </g>
            </g>
            <path d="M338.708,302.576 C340.884,302.576 341.972,301.488 341.972,299.312 L341.972,299.312 L341.972,255.044 C346.188,258.444 350.88,261.096 356.048,263 C361.216,264.904 366.656,265.856 372.368,265.856 C379.032,265.856 385.288,264.598 391.136,262.082 C396.984,259.566 402.084,256.132 406.436,251.78 C410.788,247.428 414.222,242.362 416.738,236.582 C419.254,230.802 420.512,224.58 420.512,217.916 C420.512,211.252 419.254,204.996 416.738,199.148 C414.222,193.3 410.788,188.2 406.436,183.848 C402.084,179.496 396.984,176.062 391.136,173.546 C385.288,171.03 379.032,169.772 372.368,169.772 C366.656,169.772 361.216,170.724 356.048,172.628 C350.88,174.532 346.188,177.252 341.972,180.788 L341.972,180.788 L341.972,175.28 C341.972,173.104 340.884,172.016 338.708,172.016 L338.708,172.016 L326.264,172.016 C325.448,172.016 324.7,172.322 324.02,172.934 C323.34,173.546 323,174.328 323,175.28 L323,175.28 L323,299.312 C323,300.264 323.34,301.046 324.02,301.658 C324.7,302.27 325.448,302.576 326.264,302.576 L326.264,302.576 L338.708,302.576 Z M372.368,248.108 C368.152,248.108 364.174,247.36 360.434,245.864 C356.694,244.368 353.396,242.294 350.54,239.642 C347.684,236.99 345.406,233.828 343.706,230.156 C342.006,226.484 341.156,222.404 341.156,217.916 C341.156,213.428 342.006,209.348 343.706,205.676 C345.406,202.004 347.684,198.808 350.54,196.088 C353.396,193.368 356.694,191.26 360.434,189.764 C364.174,188.268 368.152,187.52 372.368,187.52 C376.584,187.52 380.528,188.336 384.2,189.968 C387.872,191.6 391.068,193.776 393.788,196.496 C396.508,199.216 398.684,202.412 400.316,206.084 C401.948,209.756 402.764,213.7 402.764,217.916 C402.764,222.132 401.948,226.076 400.316,229.748 C398.684,233.42 396.508,236.616 393.788,239.336 C391.068,242.056 387.872,244.198 384.2,245.762 C380.528,247.326 376.584,248.108 372.368,248.108 Z M485.413142,266.06 C491.261142,266.06 496.803142,265.074 502.039142,263.102 C507.275142,261.13 511.933142,258.444 516.013142,255.044 L516.013142,255.044 L516.013142,259.736 C516.013142,260.688 516.353142,261.47 517.033142,262.082 C517.713142,262.694 518.529142,263 519.481142,263 L519.481142,263 L531.925142,263 C534.101142,263 535.189142,261.912 535.189142,259.736 L535.189142,259.736 L535.189142,175.076 C535.189142,172.9 534.101142,171.812 531.925142,171.812 L531.925142,171.812 L519.481142,171.812 C518.529142,171.812 517.713142,172.118 517.033142,172.73 C516.353142,173.342 516.013142,174.124 516.013142,175.076 L516.013142,175.076 L516.013142,180.38 C511.933142,176.844 507.275142,174.124 502.039142,172.22 C496.803142,170.316 491.261142,169.364 485.413142,169.364 C478.749142,169.364 472.493142,170.622 466.645142,173.138 C460.797142,175.654 455.697142,179.122 451.345142,183.542 C446.993142,187.962 443.559142,193.096 441.043142,198.944 C438.527142,204.792 437.269142,211.048 437.269142,217.712 C437.269142,224.376 438.527142,230.632 441.043142,236.48 C443.559142,242.328 446.993142,247.462 451.345142,251.882 C455.697142,256.302 460.797142,259.77 466.645142,262.286 C472.493142,264.802 478.749142,266.06 485.413142,266.06 Z M485.413142,248.108 C481.197142,248.108 477.253142,247.326 473.581142,245.762 C469.909142,244.198 466.679142,242.022 463.891142,239.234 C461.103142,236.446 458.927142,233.216 457.363142,229.544 C455.799142,225.872 455.017142,221.928 455.017142,217.712 C455.017142,213.496 455.799142,209.518 457.363142,205.778 C458.927142,202.038 461.103142,198.808 463.891142,196.088 C466.679142,193.368 469.909142,191.192 473.581142,189.56 C477.253142,187.928 481.197142,187.112 485.413142,187.112 C489.629142,187.112 493.641142,187.86 497.449142,189.356 C501.257142,190.852 504.623142,192.96 507.547142,195.68 C510.471142,198.4 512.783142,201.63 514.483142,205.37 C516.183142,209.11 517.033142,213.224 517.033142,217.712 C517.033142,222.2 516.183142,226.28 514.483142,229.952 C512.783142,233.624 510.471142,236.82 507.547142,239.54 C504.623142,242.26 501.257142,244.368 497.449142,245.864 C493.641142,247.36 489.629142,248.108 485.413142,248.108 Z M573.978285,300.944 C574.658285,300.944 575.338285,300.74 576.018285,300.332 C580.914285,296.796 585.028285,293.124 588.360285,289.316 C591.692285,285.508 594.412285,281.972 596.520285,278.708 C598.628285,275.444 600.192285,272.69 601.212285,270.446 C602.232285,268.202 602.878285,266.808 603.150285,266.264 L603.150285,266.264 L611.106285,245.66 L639.666285,174.872 C640.210285,173.784 640.142285,172.832 639.462285,172.016 C638.782285,171.064 637.898285,170.588 636.810285,170.588 L636.810285,170.588 L623.958285,170.588 C622.462285,170.588 621.510285,171.268 621.102285,172.628 L621.102285,172.628 L597.234285,231.788 L573.366285,172.628 C572.686285,171.268 571.666285,170.588 570.306285,170.588 L570.306285,170.588 L557.454285,170.588 C556.502285,170.588 555.686285,171.064 555.006285,172.016 C554.326285,172.968 554.190285,173.92 554.598285,174.872 L554.598285,174.872 L586.830285,254.432 L584.790285,259.328 L584.790285,259.532 C584.790285,259.668 584.382285,260.586 583.566285,262.286 C582.750285,263.986 581.526285,266.094 579.894285,268.61 C578.262285,271.126 576.188285,273.88 573.672285,276.872 C571.156285,279.864 568.062285,282.72 564.390285,285.44 C564.118285,285.712 563.914285,285.848 563.778285,285.848 C563.098285,286.528 562.758285,287.344 562.758285,288.296 C562.758285,288.704 562.894285,289.18 563.166285,289.724 C563.166285,289.996 563.302285,290.268 563.574285,290.54 L563.574285,290.54 L571.122285,299.108 L571.530285,299.924 C572.210285,300.604 573.026285,300.944 573.978285,300.944 Z M697.835427,265.244 C704.499427,265.244 710.755427,263.986 716.603427,261.47 C722.451427,258.954 727.551427,255.52 731.903427,251.168 C736.255427,246.816 739.689427,241.716 742.205427,235.868 C744.721427,230.02 745.979427,223.764 745.979427,217.1 C745.979427,210.436 744.721427,204.214 742.205427,198.434 C739.689427,192.654 736.255427,187.588 731.903427,183.236 C727.551427,178.884 722.451427,175.45 716.603427,172.934 C710.755427,170.418 704.499427,169.16 697.835427,169.16 C692.123427,169.16 686.683427,170.112 681.515427,172.016 C676.347427,173.92 671.655427,176.572 667.439427,179.972 L667.439427,179.972 L667.439427,135.704 C667.439427,133.528 666.351427,132.44 664.175427,132.44 L664.175427,132.44 L651.731427,132.44 C650.915427,132.44 650.167427,132.746 649.487427,133.358 C648.807427,133.97 648.467427,134.752 648.467427,135.704 L648.467427,135.704 L648.467427,259.736 C648.467427,260.688 648.807427,261.47 649.487427,262.082 C650.167427,262.694 650.915427,263 651.731427,263 L651.731427,263 L664.175427,263 C666.351427,263 667.439427,261.912 667.439427,259.736 L667.439427,259.736 L667.439427,254.228 C671.655427,257.764 676.347427,260.484 681.515427,262.388 C686.683427,264.292 692.123427,265.244 697.835427,265.244 Z M697.835427,247.496 C693.619427,247.496 689.641427,246.748 685.901427,245.252 C682.161427,243.756 678.863427,241.648 676.007427,238.928 C673.151427,236.208 670.873427,233.012 669.173427,229.34 C667.473427,225.668 666.623427,221.588 666.623427,217.1 C666.623427,212.612 667.473427,208.532 669.173427,204.86 C670.873427,201.188 673.151427,198.026 676.007427,195.374 C678.863427,192.722 682.161427,190.648 685.901427,189.152 C689.641427,187.656 693.619427,186.908 697.835427,186.908 C702.051427,186.908 705.995427,187.69 709.667427,189.254 C713.339427,190.818 716.535427,192.96 719.255427,195.68 C721.975427,198.4 724.151427,201.596 725.783427,205.268 C727.415427,208.94 728.231427,212.884 728.231427,217.1 C728.231427,221.316 727.415427,225.26 725.783427,228.932 C724.151427,232.604 721.975427,235.834 719.255427,238.622 C716.535427,241.41 713.339427,243.586 709.667427,245.15 C705.995427,246.714 702.051427,247.496 697.835427,247.496 Z M778.24057,161.408 C781.77657,161.408 784.76857,160.15 787.21657,157.634 C789.66457,155.118 790.88857,152.092 790.88857,148.556 C790.88857,145.02 789.66457,142.028 787.21657,139.58 C784.76857,137.132 781.77657,135.908 778.24057,135.908 C774.70457,135.908 771.67857,137.132 769.16257,139.58 C766.64657,142.028 765.38857,145.02 765.38857,148.556 C765.38857,152.092 766.64657,155.118 769.16257,157.634 C771.67857,160.15 774.70457,161.408 778.24057,161.408 Z M784.36057,263 C785.31257,263 786.12857,262.694 786.80857,262.082 C787.48857,261.47 787.82857,260.688 787.82857,259.736 L787.82857,259.736 L787.82857,175.484 C787.82857,174.532 787.48857,173.75 786.80857,173.138 C786.12857,172.526 785.31257,172.22 784.36057,172.22 L784.36057,172.22 L771.91657,172.22 C769.74057,172.22 768.65257,173.308 768.65257,175.484 L768.65257,175.484 L768.65257,259.736 C768.65257,261.912 769.74057,263 771.91657,263 L771.91657,263 L784.36057,263 Z M880.269712,263 C881.221712,263 882.037712,262.694 882.717712,262.082 C883.397712,261.47 883.737712,260.62 883.737712,259.532 L883.737712,259.532 L883.737712,247.904 C883.737712,246.952 883.397712,246.17 882.717712,245.558 C882.037712,244.946 881.221712,244.64 880.269712,244.64 L880.269712,244.64 L840.693712,244.64 C849.125712,232.264 856.741712,221.18 863.541712,211.388 C866.397712,207.172 869.219712,203.058 872.007712,199.046 C874.795712,195.034 877.311712,191.464 879.555712,188.336 C881.799712,185.208 883.601712,182.624 884.961712,180.584 C886.321712,178.544 887.069712,177.456 887.205712,177.32 C887.749712,176.368 887.885712,175.246 887.613712,173.954 C887.341712,172.662 886.253712,172.016 884.349712,172.016 L884.349712,172.016 L817.233712,172.016 C816.145712,172.016 815.295712,172.356 814.683712,173.036 C814.071712,173.716 813.765712,174.464 813.765712,175.28 L813.765712,175.28 L813.765712,186.908 C813.765712,187.996 814.105712,188.846 814.785712,189.458 C815.465712,190.07 816.281712,190.376 817.233712,190.376 L817.233712,190.376 L855.789712,190.376 L832.941712,223.424 C830.085712,227.64 827.263712,231.754 824.475712,235.766 C821.687712,239.778 819.205712,243.382 817.029712,246.578 C814.853712,249.774 813.051712,252.392 811.623712,254.432 C810.195712,256.472 809.413712,257.56 809.277712,257.696 C808.597712,258.648 808.529712,259.77 809.073712,261.062 C809.617712,262.354 810.637712,263 812.133712,263 L812.133712,263 L880.269712,263 Z" id="paybiz" fill="#444444" fill-rule="nonzero"></path>
            <g id="buss">
                <g id="Group-Copy" transform="translate(174.077248, 182.484950) rotate(-19.000000) translate(-174.077248, -182.484950) translate(41.077248, 35.484950)">
                    <g id="Group-2" transform="translate(0.400909, 0.227056)">
                        <path d="M235.586989,154.123119 C254.885627,170.4811 261.247854,218.498211 204.587679,226.064067 C189.564952,226.064067 176.940765,222.013058 166.715116,213.911039 L167.187656,197.328724 C182.530806,190.137667 192.489485,178.343741 197.06369,161.946946 C200.627174,149.173205 219.29673,140.315111 235.586989,154.123119 Z M238.874322,180.021977 C231.999117,145.466208 207.78282,155.90916 204.722582,164.458136 C197.056173,185.874748 184.160558,196.948625 175.577529,203.726808 C180.627851,206.519687 191.012144,205.020783 206.730408,199.230096 C200.392456,205.85316 191.547805,210.200854 180.196454,212.273176 C190.157779,221.252657 246.131108,216.49563 238.874322,180.021977 Z" id="Combined-Shape" fill="#444444" transform="translate(208.032634, 186.605991) rotate(37.000000) translate(-208.032634, -186.605991) "></path>
                        <path d="M77.7961056,79.844432 C97.0947437,96.2024137 103.456971,144.219525 46.7967961,151.78538 C31.7740695,151.78538 19.1498819,147.734371 8.92423326,139.632353 L9.39677282,123.050037 C24.7399235,115.858981 34.6986016,104.065055 39.272807,87.6682597 C42.8362911,74.8945178 61.5058471,66.0364241 77.7961056,79.844432 Z M81.083439,105.743291 C74.2082339,71.1875213 49.9919374,81.6304732 46.9316987,90.1794492 C39.2652898,111.596061 26.3696754,122.669938 17.7866463,129.448122 C22.8369678,132.241 33.2212606,130.742096 48.9395247,124.951409 C42.6015734,131.574474 33.7569221,135.922167 22.4055707,137.994489 C32.3668965,146.97397 88.3402255,142.216943 81.083439,105.743291 Z" id="Combined-Shape" fill="#444444" transform="translate(50.241751, 112.327305) scale(-1, 1) rotate(-14.000000) translate(-50.241751, -112.327305) "></path>
                        <path d="M175.976821,203.53706 C184.55985,196.758876 197.455464,185.684999 205.121873,164.268388 C208.182112,155.719412 232.398408,145.27646 239.273613,179.832229 C246.5304,216.305882 190.557071,221.062909 180.595745,212.083428 C191.947096,210.011106 200.791748,205.663412 207.129699,199.040348 C191.411435,204.831034 181.027142,206.329939 175.976821,203.53706 Z" id="Combined-Shape-Copy-19" fill="#FFFFFF" transform="translate(207.948709, 185.914484) rotate(37.000000) translate(-207.948709, -185.914484) "></path>
                        <path d="M18.8601201,129.579918 C27.4431492,122.801734 40.3387636,111.727857 48.0051725,90.3112452 C51.0654112,81.7622693 75.2817077,71.3193173 82.1569128,105.875087 C89.4136993,142.348739 33.4403703,147.105766 23.4790445,138.126285 C34.8303959,136.053963 43.6750472,131.70627 50.0129985,125.083205 C34.2947344,130.873892 23.9104416,132.372796 18.8601201,129.579918 Z" id="Combined-Shape-Copy-18" fill="#FFFFFF" transform="translate(50.832009, 111.957342) scale(-1, 1) rotate(-14.000000) translate(-50.832009, -111.957342) "></path>
                        <path d="M105.557384,25.753031 C147.357217,25.753031 181.242677,59.8143216 181.242677,101.831053 C181.242677,111.227865 179.547832,120.22677 176.448655,128.53575 C202.204086,140.673325 220.559712,167.185256 220.559712,197.6696 C220.559712,239.686331 186.674252,273.747621 144.874419,273.747621 C142.349982,273.747621 139.854411,273.623387 137.393427,273.380669 C133.152373,272.962389 117.070644,268.57138 113.332928,266.846599 C87.2810855,254.824897 69.1891263,228.371013 69.1891263,197.6696 C69.1891263,188.27657 70.8826069,179.281127 73.9794062,170.974937 L73.9744622,170.988919 C47.9448711,158.958298 29.8720911,132.516189 29.8720911,101.831053 C29.8720911,59.8143216 63.7575509,25.753031 105.557384,25.753031 Z" id="Oval-3" fill="#F6D04B" transform="translate(125.215902, 149.750326) scale(-1, 1) translate(-125.215902, -149.750326) "></path>
                        <path d="M77.6768591,79.3272514 C77.6768591,121.318052 111.40753,155.358321 153.016421,155.358321 C174.860846,155.358321 194.533885,145.976181 208.294732,130.98704 C208.793499,129.909691 209.277277,128.804421 209.745316,127.671169 C213.060073,129.231336 216.252266,131.03139 219.298407,133.048943 C193.071317,141.941569 166.210221,159.758462 146.043588,170.151626 C142.960935,178.45269 141.27519,187.442582 141.27519,196.829814 C141.27519,227.51228 159.284505,253.949837 185.217342,265.96412 C186.91491,266.750577 188.161224,269.027214 188.122581,272.239428 C184.957582,272.649959 181.731076,272.860884 178.455753,272.860884 C175.942847,272.860884 173.458676,272.736726 171.008935,272.494158 C166.787254,272.076136 150.778986,267.687837 147.058344,265.96412 C121.125507,253.949837 103.116192,227.51228 103.116192,196.829814 C103.116192,187.442582 104.801936,178.45269 107.884589,170.151626 L107.878825,170.165208 C81.96859,158.141829 63.978757,131.71628 63.978757,101.050414 C63.978757,81.4022995 71.363892,63.4949074 83.4856503,50.0010594 C79.7437978,59.0253525 77.6768591,68.9327067 77.6768591,79.3272514 Z" id="Oval-3" fill="#DEAB54" transform="translate(141.638582, 161.430972) scale(-1, 1) translate(-141.638582, -161.430972) "></path>
                        <path d="M142.52923,25.7208195 C184.332018,25.7208195 218.219874,59.9420762 218.219874,102.156136 C218.219874,116.321713 214.403961,129.587268 207.75355,140.96173 C209.450592,134.60285 210.355911,127.916588 210.355911,121.016798 C210.355911,78.8027386 176.468055,44.5814819 134.665268,44.5814819 C106.891281,44.5814819 82.6112171,59.6879134 69.4427015,82.2082041 C78.1296292,49.6680586 107.560087,25.7208195 142.52923,25.7208195 Z" id="Oval-3-Copy-2" fill="#FAE7B2" transform="translate(143.831288, 83.340775) scale(-1, 1) translate(-143.831288, -83.340775) "></path>
                        <path d="M133.127554,64.0301262 C144.897184,64.0301262 154.606512,72.850659 156.004816,84.2414727 C158.747611,82.5137169 161.996115,81.5147225 165.477965,81.5147225 C175.314975,81.5147225 183.289446,89.4885923 183.289446,99.3248591 C183.289446,109.161126 175.314975,117.134996 165.477965,117.134996 C157.38752,117.134996 150.556939,111.741283 148.38644,104.353819 C144.322388,107.946267 138.979653,110.12695 133.127554,110.12695 C120.397306,110.12695 110.077402,99.8078248 110.077402,87.0785383 C110.077402,74.3492518 120.397306,64.0301262 133.127554,64.0301262 Z" id="Combined-Shape" fill="#FFFFFF"></path>
                        <path d="M106.699227,24.838751 C148.940502,24.838751 183.183822,59.0794859 183.183822,101.317573 C183.183822,110.538432 181.55186,119.378154 178.560992,127.563704 C203.992409,140.101884 222.004886,166.636326 222.004886,197.080041 C222.004886,239.661661 187.761566,274.180885 145.520291,274.180885 C142.969193,274.180885 140.447266,274.05498 137.960293,273.808999 C133.67445,273.385096 123.946725,278.90611 136.211604,292.765363 C116.067776,283.716341 117.422884,268.935052 113.645693,267.187082 C87.3187212,255.003755 69.0356953,228.194216 69.0356953,197.080041 C69.0356953,187.867802 70.6384307,179.032919 73.5781464,170.843287 L73.8136316,170.194751 L73.7545484,170.357716 C48.0035428,158.049561 30.2146316,131.760821 30.2146316,101.317573 C30.2146316,59.0794859 64.4579513,24.838751 106.699227,24.838751 Z M205.813447,208.106502 L205.803798,208.121755 C193.410534,232.648804 168.628176,249.185519 139.407346,249.185519 C124.488786,249.185519 110.580839,244.801173 98.8700252,237.234738 C110.16382,250.369991 126.787858,258.670238 145.323897,258.670238 C175.334554,258.670238 200.333279,236.912779 205.813447,208.106502 Z M174.196415,141.332868 C161.342432,215.296456 90.418155,192.908412 86.3643236,176.404511 C81.7000547,194.603804 83.7340126,197.882961 83.766443,198.715284 C83.8329023,200.420956 83.9668171,202.109049 84.1655574,203.776896 C113.738161,233.099826 186.272271,222.38152 193.643494,157.453118 C193.120696,156.783533 192.585924,156.126951 192.038376,155.481837 C187.420785,150.041449 180.392478,144.900014 174.196415,141.332868 Z M107.022379,37.5982438 C72.2902113,37.5982438 44.1342262,65.7911307 44.1342262,100.568819 C44.1342262,135.346508 72.2902113,163.539395 107.022379,163.539395 C141.754547,163.539395 169.910532,135.346508 169.910532,100.568819 C169.910532,65.7911307 141.754547,37.5982438 107.022379,37.5982438 Z M153.47397,99.5645908 C155.704905,101.194016 157.334374,105.429741 158.362376,112.271765 C156.944927,109.416367 155.315458,107.988668 153.47397,107.988668 C146.517117,151.74343 91.1244459,158.995604 70.5102621,132.629232 C67.9777808,133.453626 66.4708792,134.732987 65.9895574,136.467315 C65.0083053,133.613817 64.6314375,130.991622 64.8589539,128.600729 C65.1116025,125.945732 69.1967132,123.449712 69.9645299,123.37396 C70.5756052,123.313671 71.0270662,124.626528 71.3189131,127.312529 C84.4123673,140.564619 99.7277605,145.030073 117.265093,140.708893 C135.045684,136.327775 145.137383,123.945697 147.54019,103.562659 C148.234135,101.339502 147.022779,100.006813 143.906124,99.5645908 C145.014129,98.92028 150.127568,97.120453 153.47397,99.5645908 Z M113.739178,80.0641669 C114.405316,79.8605081 115.079118,79.7422559 115.750665,79.7034473 C114.14848,81.0089065 113.408327,83.1996284 114.049642,85.2972738 C114.895479,88.0638823 117.824114,89.6209234 120.590931,88.7750224 C122.720289,88.1240126 124.133236,86.2394851 124.285718,84.1445649 C124.937587,85.0867681 125.461889,86.1553049 125.819804,87.3259919 C127.511478,92.8592089 124.845543,98.5790962 119.865272,100.101718 C114.885001,101.62434 109.476321,98.3731098 107.784646,92.8398929 C106.092972,87.3066759 108.758907,81.5867886 113.739178,80.0641669 Z M84.019614,90.296661 C84.685752,90.0930022 85.3595544,89.9747499 86.0311015,89.9359413 C84.4289158,91.2414005 83.6887635,93.4321224 84.3300781,95.5297679 C85.1759151,98.2963764 88.1045502,99.8534175 90.8713675,99.0075165 C93.0007247,98.3565067 94.4136717,96.4719792 94.5661538,94.377059 C95.2180227,95.3192621 95.7423247,96.387799 96.1002397,97.558486 C97.7919139,103.091703 95.1259793,108.81159 90.1457081,110.334212 C85.165437,111.856834 79.7567566,108.605604 78.0650825,103.072387 C76.3734083,97.53917 79.0393429,91.8192827 84.019614,90.296661 Z" id="Combined-Shape" fill="#444444" transform="translate(126.109759, 158.802057) scale(-1, 1) translate(-126.109759, -158.802057) "></path>
                        <path d="M118.163693,0.505423507 C123.46,0.505423507 128.031366,3.61333287 130.158048,8.10715382 C141.197946,15.3262698 146.533954,28.7766946 152.30272,44.7816093 C149.354838,49.640777 145.36671,50.7196664 141.819244,48.1069297 C138.621106,35.2149054 133.404882,26.6418708 126.441717,24.1664119 C124.173368,25.984602 121.295251,27.071135 118.163693,27.071135 C110.837376,27.071135 104.898223,21.1241979 104.898223,13.7882793 C104.898223,6.45236059 110.837376,0.505423507 118.163693,0.505423507 Z" id="Combined-Shape" fill="#444444"></path>
                        <path d="M193.649302,6.55085065 C198.945609,6.55085065 203.516975,9.65876001 205.643657,14.152581 C216.683555,21.371697 222.019563,34.8221217 227.788329,50.8270365 C224.840447,55.6862042 220.852319,56.7650936 217.304853,54.1523568 C214.106715,41.2603326 208.890491,32.687298 201.927326,30.2118391 C199.658977,32.0300291 196.78086,33.1165622 193.649302,33.1165622 C186.322985,33.1165622 180.383832,27.1696251 180.383832,19.8337064 C180.383832,12.4977877 186.322985,6.55085065 193.649302,6.55085065 Z" id="Combined-Shape" fill="#444444" transform="translate(204.086080, 31.043085) scale(-1, 1) translate(-204.086080, -31.043085) "></path>
                    </g>
                </g>
            </g>
            <path d="M265.248,300.594 C268.449333,300.594 271.373,299.826333 274.019,298.291 C276.665,296.755667 278.755667,294.656833 280.291,291.9945 C281.826333,289.332167 282.594,286.400333 282.594,283.199 C282.594,279.997667 281.842667,277.082167 280.34,274.4525 C278.837333,271.822833 276.771167,269.756667 274.1415,268.254 C271.511833,266.751333 268.58,266 265.346,266 C262.112,266 259.172,266.767667 256.526,268.303 C253.88,269.838333 251.7975,271.929 250.2785,274.575 C248.7595,277.221 248,280.128333 248,283.297 C248,286.465667 248.7595,289.373 250.2785,292.019 C251.7975,294.665 253.871833,296.755667 256.5015,298.291 C259.131167,299.826333 262.046667,300.594 265.248,300.594 Z M265.248,297.899 C262.536667,297.899 260.0785,297.253833 257.8735,295.9635 C255.6685,294.673167 253.937167,292.917333 252.6795,290.696 C251.421833,288.474667 250.793,286.008333 250.793,283.297 C250.793,280.585667 251.421833,278.119333 252.6795,275.898 C253.937167,273.676667 255.676667,271.920833 257.898,270.6305 C260.119333,269.340167 262.602,268.695 265.346,268.695 C268.09,268.695 270.556333,269.332 272.745,270.606 C274.933667,271.88 276.648667,273.6195 277.89,275.8245 C279.131333,278.0295 279.752,280.487667 279.752,283.199 C279.752,285.910333 279.115,288.384833 277.841,290.6225 C276.567,292.860167 274.8275,294.632333 272.6225,295.939 C270.4175,297.245667 267.959333,297.899 265.248,297.899 Z M262.259,292.95 L262.259,287.07 L266.62,287.07 L270.442,292.95 L274.656,292.95 L270.344,286.335 C271.585333,285.812333 272.540833,285.044667 273.2105,284.032 C273.880167,283.019333 274.215,281.794333 274.215,280.357 C274.215,278.299 273.488167,276.665667 272.0345,275.457 C270.580833,274.248333 268.596333,273.644 266.081,273.644 L266.081,273.644 L258.045,273.644 L258.045,292.95 L262.259,292.95 Z M265.836,283.787 L262.21,283.787 L262.21,276.976 L265.836,276.976 C267.208,276.976 268.269667,277.27 269.021,277.858 C269.772333,278.446 270.148,279.279 270.148,280.357 C270.148,281.435 269.772333,282.276167 269.021,282.8805 C268.269667,283.484833 267.208,283.787 265.836,283.787 L265.836,283.787 Z" id="" fill="#444444" fill-rule="nonzero"></path>
        </g>
    </g>
</svg>